<?xml version="1.0" standalone="no"?>
<!DOCTYPE svg PUBLIC "-//W3C//DTD SVG 20010904//EN"
 "http://www.w3.org/TR/2001/REC-SVG-20010904/DTD/svg10.dtd">
<svg version="1.0" xmlns="http://www.w3.org/2000/svg"
 width="624.000000pt" height="294.000000pt" viewBox="0 0 624.000000 294.000000"
 preserveAspectRatio="xMidYMid meet">

<g transform="translate(0.000000,294.000000) scale(0.100000,-0.100000)"
fill="#000000" stroke="none">
<path d="M4435 718 c-21 -57 -35 -102 -35 -109 0 -5 142 -9 315 -9 347 0 333
-3 299 61 -9 18 -32 38 -57 50 -37 16 -68 19 -280 19 -181 0 -239 -3 -242 -12z"/>
<path d="M5183 665 l-21 -65 334 0 335 0 -15 28 c-19 37 -54 68 -98 87 -30 12
-83 15 -276 15 l-238 0 -21 -65z"/>
<path d="M4028 460 l3 -90 -63 0 -64 0 -45 -62 c-25 -35 -49 -69 -53 -76 -6
-11 13 -13 96 -12 56 1 109 1 116 1 7 -1 12 -17 12 -43 0 -24 3 -74 7 -112 l6
-68 106 5 c61 3 126 12 153 22 49 17 130 81 150 119 6 11 40 108 74 214 l62
193 -106 -3 -105 -3 -47 -147 c-42 -132 -66 -186 -76 -175 -4 3 -34 287 -34
315 0 9 -26 12 -97 12 l-98 0 3 -90z"/>
<path d="M4800 526 c0 -32 -45 -85 -87 -102 -18 -8 -60 -14 -93 -14 -33 0 -60
-3 -60 -6 0 -3 44 -90 98 -194 l97 -190 98 0 c53 0 97 3 97 6 0 3 -34 70 -75
148 -41 79 -75 147 -75 152 0 6 24 22 54 36 88 44 139 96 160 166 7 22 7 22
-103 22 -111 0 -111 0 -111 -24z"/>
<path d="M5147 543 c-3 -5 -43 -124 -90 -265 l-85 -258 217 0 c151 0 231 4
268 14 151 40 253 125 321 266 40 84 62 163 62 220 l0 30 -126 0 c-112 0 -125
-2 -114 -15 9 -10 11 -36 8 -78 -9 -114 -83 -229 -172 -267 -38 -17 -188 -35
-199 -24 -2 3 22 87 54 187 32 100 59 185 59 190 0 4 -45 7 -99 7 -55 0 -102
-3 -104 -7z"/>
</g>
</svg>
